<svg width="1132" height="1589" viewBox="0 0 1132 1589" fill="none" xmlns="http://www.w3.org/2000/svg">
<g opacity="0.5">
<circle r="4.14815" transform="matrix(-1 0 0 1 1086.85 74.1501)" fill="white"/>
<circle r="4.14815" transform="matrix(-1 0 0 1 887.741 74.1501)" fill="white"/>
<circle r="4.14815" transform="matrix(-1 0 0 1 688.629 74.1501)" fill="white"/>
<circle r="4.14815" transform="matrix(-1 0 0 1 622.26 74.1501)" fill="white"/>
<circle r="4.14815" transform="matrix(-1 0 0 1 555.889 74.1501)" fill="white"/>
<circle r="4.14815" transform="matrix(-1 0 0 1 489.518 74.1501)" fill="white"/>
<circle r="4.14815" transform="matrix(-1 0 0 1 423.147 74.1501)" fill="white"/>
<circle r="4.14815" transform="matrix(-1 0 0 1 1020.48 74.1501)" fill="white"/>
<circle r="4.14815" transform="matrix(-1 0 0 1 821.371 74.1501)" fill="white"/>
<circle r="4.14815" transform="matrix(-1 0 0 1 954.11 74.1501)" fill="white"/>
<circle r="4.14815" transform="matrix(-1 0 0 1 754.998 74.1501)" fill="white"/>
<circle r="4.14815" transform="matrix(-1 0 0 1 1086.85 140.517)" fill="white"/>
<circle r="4.14815" transform="matrix(-1 0 0 1 887.741 140.517)" fill="white"/>
<circle r="4.14815" transform="matrix(-1 0 0 1 688.629 140.517)" fill="white"/>
<circle r="4.14815" transform="matrix(-1 0 0 1 622.26 140.517)" fill="white"/>
<circle r="4.14815" transform="matrix(-1 0 0 1 555.889 140.517)" fill="white"/>
<circle r="4.14815" transform="matrix(-1 0 0 1 489.518 140.517)" fill="white"/>
<circle r="4.14815" transform="matrix(-1 0 0 1 423.147 140.517)" fill="white"/>
<circle r="4.14815" transform="matrix(-1 0 0 1 1020.48 140.517)" fill="white"/>
<circle r="4.14815" transform="matrix(-1 0 0 1 821.371 140.517)" fill="white"/>
<circle r="4.14815" transform="matrix(-1 0 0 1 954.11 140.517)" fill="white"/>
<circle r="4.14815" transform="matrix(-1 0 0 1 754.998 140.517)" fill="white"/>
<circle r="4.14815" transform="matrix(-1 0 0 1 1086.85 206.89)" fill="white"/>
<circle r="4.14815" transform="matrix(-1 0 0 1 887.741 206.89)" fill="white"/>
<circle r="4.14815" transform="matrix(-1 0 0 1 688.629 206.89)" fill="white"/>
<circle r="4.14815" transform="matrix(-1 0 0 1 622.26 206.89)" fill="white"/>
<circle r="4.14815" transform="matrix(-1 0 0 1 555.889 206.89)" fill="white"/>
<circle r="4.14815" transform="matrix(-1 0 0 1 489.518 206.89)" fill="white"/>
<circle r="4.14815" transform="matrix(-1 0 0 1 423.147 206.89)" fill="white"/>
<circle r="4.14815" transform="matrix(-1 0 0 1 1020.48 206.89)" fill="white"/>
<circle r="4.14815" transform="matrix(-1 0 0 1 821.371 206.89)" fill="white"/>
<circle r="4.14815" transform="matrix(-1 0 0 1 954.11 206.89)" fill="white"/>
<circle r="4.14815" transform="matrix(-1 0 0 1 754.998 206.89)" fill="white"/>
<circle r="4.14815" transform="matrix(-1 0 0 1 1086.85 273.263)" fill="white"/>
<circle r="4.14815" transform="matrix(-1 0 0 1 887.741 273.263)" fill="white"/>
<circle r="4.14815" transform="matrix(-1 0 0 1 688.629 273.263)" fill="white"/>
<circle r="4.14815" transform="matrix(-1 0 0 1 555.889 273.263)" fill="white"/>
<circle r="4.14815" transform="matrix(-1 0 0 1 489.518 273.263)" fill="white"/>
<circle r="4.14815" transform="matrix(-1 0 0 1 423.147 273.263)" fill="white"/>
<circle r="4.14815" transform="matrix(-1 0 0 1 1020.48 273.263)" fill="white"/>
<circle r="4.14815" transform="matrix(-1 0 0 1 821.371 273.263)" fill="white"/>
<circle r="4.14815" transform="matrix(-1 0 0 1 954.11 273.263)" fill="white"/>
<circle r="4.14815" transform="matrix(-1 0 0 1 754.998 273.263)" fill="white"/>
<circle r="4.14815" transform="matrix(-1 0 0 1 1086.85 339.634)" fill="white"/>
<circle r="4.14815" transform="matrix(-1 0 0 1 887.741 339.634)" fill="white"/>
<circle r="4.14815" transform="matrix(-1 0 0 1 622.26 339.634)" fill="white"/>
<circle r="4.14815" transform="matrix(-1 0 0 1 555.889 339.634)" fill="white"/>
<circle r="4.14815" transform="matrix(-1 0 0 1 489.518 339.634)" fill="white"/>
<circle r="4.14815" transform="matrix(-1 0 0 1 423.147 339.634)" fill="white"/>
<circle r="4.14815" transform="matrix(-1 0 0 1 1020.48 339.634)" fill="white"/>
<circle r="4.14815" transform="matrix(-1 0 0 1 821.371 339.634)" fill="white"/>
<circle r="4.14815" transform="matrix(-1 0 0 1 954.11 339.634)" fill="white"/>
<circle r="4.14815" transform="matrix(-1 0 0 1 754.998 339.634)" fill="white"/>
<circle r="4.14815" transform="matrix(-1 0 0 1 1086.85 406.002)" fill="white"/>
<circle r="4.14815" transform="matrix(-1 0 0 1 887.741 406.002)" fill="white"/>
<circle r="4.14815" transform="matrix(-1 0 0 1 688.629 406.002)" fill="white"/>
<circle r="4.14815" transform="matrix(-1 0 0 1 622.26 406.002)" fill="white"/>
<circle r="4.14815" transform="matrix(-1 0 0 1 555.889 406.002)" fill="white"/>
<circle r="4.14815" transform="matrix(-1 0 0 1 489.518 406.002)" fill="white"/>
<circle r="4.14815" transform="matrix(-1 0 0 1 423.147 406.002)" fill="white"/>
<circle r="4.14815" transform="matrix(-1 0 0 1 1020.48 406.002)" fill="white"/>
<circle r="4.14815" transform="matrix(-1 0 0 1 821.371 406.002)" fill="white"/>
<circle r="4.14815" transform="matrix(-1 0 0 1 954.11 406.002)" fill="white"/>
<g filter="url(#filter0_f_2516_17725)">
<circle r="373.333" transform="matrix(-1 0 0 1 991.442 144.669)" fill="url(#paint0_linear_2516_17725)"/>
</g>
<circle r="4.14815" transform="matrix(-1 0 0 1 1086.85 472.375)" fill="white"/>
<circle r="4.14815" transform="matrix(-1 0 0 1 887.741 472.375)" fill="white"/>
<circle r="4.14815" transform="matrix(-1 0 0 1 688.627 472.375)" fill="white"/>
<circle r="4.14815" transform="matrix(-1 0 0 1 555.885 472.375)" fill="white"/>
<circle r="4.14815" transform="matrix(-1 0 0 1 489.518 472.375)" fill="white"/>
<circle r="4.14815" transform="matrix(-1 0 0 1 1020.48 472.375)" fill="white"/>
<circle r="4.14815" transform="matrix(-1 0 0 1 954.11 472.375)" fill="white"/>
<circle r="4.14815" transform="matrix(-1 0 0 1 754.996 472.375)" fill="white"/>
<circle r="4.14815" transform="matrix(-1 0 0 1 1086.85 538.742)" fill="white"/>
<circle r="4.14815" transform="matrix(-1 0 0 1 622.26 538.742)" fill="white"/>
<circle r="4.14815" transform="matrix(-1 0 0 1 555.889 538.742)" fill="white"/>
<circle r="4.14815" transform="matrix(-1 0 0 1 1020.48 538.742)" fill="white"/>
<circle r="4.14815" transform="matrix(-1 0 0 1 821.371 538.742)" fill="white"/>
<circle r="4.14815" transform="matrix(-1 0 0 1 954.11 538.742)" fill="white"/>
<circle r="4.14815" transform="matrix(-1 0 0 1 754.998 538.742)" fill="white"/>
<circle r="4.14815" transform="matrix(-1 0 0 1 1086.85 605.115)" fill="white"/>
<circle r="4.14815" transform="matrix(-1 0 0 1 887.741 605.115)" fill="white"/>
<circle r="4.14815" transform="matrix(-1 0 0 1 688.629 605.115)" fill="white"/>
<circle r="4.14815" transform="matrix(-1 0 0 1 622.26 605.115)" fill="white"/>
<circle r="4.14815" transform="matrix(-1 0 0 1 1020.48 605.115)" fill="white"/>
<circle r="4.14815" transform="matrix(-1 0 0 1 821.371 605.115)" fill="white"/>
<circle r="4.14815" transform="matrix(-1 0 0 1 1086.85 671.482)" fill="white"/>
<circle r="4.14815" transform="matrix(-1 0 0 1 887.741 671.482)" fill="white"/>
<circle r="4.14815" transform="matrix(-1 0 0 1 688.629 671.482)" fill="white"/>
<circle r="4.14815" transform="matrix(-1 0 0 1 1020.48 671.482)" fill="white"/>
<circle r="4.14815" transform="matrix(-1 0 0 1 954.11 671.482)" fill="white"/>
<circle r="4.14815" transform="matrix(-1 0 0 1 754.998 671.482)" fill="white"/>
<circle r="4.14815" transform="matrix(-1 0 0 1 1086.85 737.855)" fill="white"/>
<circle r="4.14815" transform="matrix(-1 0 0 1 1020.48 737.855)" fill="white"/>
<circle r="4.14815" transform="matrix(-1 0 0 1 821.371 737.855)" fill="white"/>
<circle r="4.14815" transform="matrix(-1 0 0 1 954.11 737.855)" fill="white"/>
<circle r="4.14815" transform="matrix(-1 0 0 1 754.998 737.855)" fill="white"/>
<circle r="4.14815" transform="matrix(-1 0 0 1 1086.85 804.226)" fill="white"/>
<circle r="4.14815" transform="matrix(-1 0 0 1 887.741 804.226)" fill="white"/>
<circle r="4.14815" transform="matrix(-1 0 0 1 1020.48 804.226)" fill="white"/>
<g filter="url(#filter1_f_2516_17725)">
<circle r="448" transform="matrix(-1 0 0 1 655.441 932.818)" fill="url(#paint1_linear_2516_17725)"/>
</g>
<circle r="4.14815" transform="matrix(-1 0 0 1 1086.85 870.593)" fill="white"/>
<circle r="4.14815" transform="matrix(-1 0 0 1 887.741 870.593)" fill="white"/>
<circle r="4.14815" transform="matrix(-1 0 0 1 1020.48 870.593)" fill="white"/>
<circle r="4.14815" transform="matrix(-1 0 0 1 954.11 870.593)" fill="white"/>
<circle r="4.14815" transform="matrix(-1 0 0 1 1086.85 936.967)" fill="white"/>
<circle r="4.14815" transform="matrix(-1 0 0 1 1020.48 936.967)" fill="white"/>
<circle r="4.14815" transform="matrix(-1 0 0 1 954.11 936.967)" fill="white"/>
<circle r="4.14815" transform="matrix(-1 0 0 1 1086.85 1003.33)" fill="white"/>
<circle r="4.14815" transform="matrix(-1 0 0 1 1020.48 1003.33)" fill="white"/>
<path d="M888.465 540.827C888.459 540.082 889.058 539.474 889.803 539.468L901.936 539.373C902.68 539.367 903.288 539.966 903.294 540.71C903.3 541.455 902.701 542.063 901.957 542.069L891.172 542.154L891.257 552.939C891.263 553.683 890.664 554.292 889.919 554.297C889.175 554.303 888.567 553.705 888.561 552.96L888.465 540.827ZM955.238 607.11L888.867 541.777L890.759 539.856L957.129 605.189L955.238 607.11Z" fill="#9174C0"/>
<path d="M692.052 539.769C692.058 540.513 691.46 541.122 690.715 541.127L678.582 541.223C677.837 541.229 677.229 540.63 677.223 539.885C677.217 539.141 677.816 538.533 678.561 538.527L689.346 538.442L689.261 527.657C689.255 526.912 689.854 526.304 690.598 526.298C691.343 526.292 691.951 526.891 691.957 527.636L692.052 539.769ZM625.28 473.485L691.65 538.819L689.759 540.74L623.388 475.407L625.28 473.485Z" fill="#75DEEC"/>
<path d="M755.723 409.124C755.717 408.379 756.316 407.771 757.06 407.765L769.193 407.67C769.938 407.664 770.546 408.263 770.552 409.007C770.558 409.752 769.959 410.36 769.215 410.366L758.43 410.451L758.515 421.236C758.521 421.98 757.922 422.588 757.177 422.594C756.433 422.6 755.824 422.001 755.818 421.257L755.723 409.124ZM822.496 475.407L756.125 410.074L758.017 408.153L824.387 473.486L822.496 475.407Z" fill="#9174C0"/>
<path d="M824.791 671.472C824.797 672.216 824.198 672.825 823.453 672.831L811.32 672.926C810.576 672.932 809.967 672.333 809.962 671.589C809.956 670.844 810.555 670.236 811.299 670.23L822.084 670.145L821.999 659.36C821.993 658.616 822.592 658.007 823.336 658.001C824.081 657.995 824.689 658.594 824.695 659.339L824.791 671.472ZM758.018 605.188L824.388 670.522L822.497 672.443L756.127 607.11L758.018 605.188Z" fill="#75DEEC"/>
<path d="M622.985 277.421C622.979 276.676 623.578 276.068 624.322 276.062L636.455 275.967C637.2 275.961 637.808 276.559 637.814 277.304C637.82 278.049 637.221 278.657 636.476 278.663L625.691 278.748L625.776 289.532C625.782 290.277 625.183 290.885 624.439 290.891C623.694 290.897 623.086 290.298 623.08 289.554L622.985 277.421ZM689.757 343.704L623.387 278.371L625.279 276.449L691.649 341.783L689.757 343.704Z" fill="#9174C0"/>
<path d="M957.531 803.175C957.537 803.919 956.938 804.528 956.193 804.534L944.061 804.629C943.316 804.635 942.708 804.036 942.702 803.292C942.696 802.547 943.295 801.939 944.039 801.933L954.824 801.848L954.739 791.063C954.733 790.319 955.332 789.71 956.077 789.704C956.821 789.699 957.43 790.297 957.435 791.042L957.531 803.175ZM890.758 736.891L957.129 802.225L955.237 804.146L888.867 738.813L890.758 736.891Z" fill="#75DEEC"/>
</g>
<defs>
<filter id="filter0_f_2516_17725" x="410.702" y="-436.071" width="1161.48" height="1161.48" filterUnits="userSpaceOnUse" color-interpolation-filters="sRGB">
<feFlood flood-opacity="0" result="BackgroundImageFix"/>
<feBlend mode="normal" in="SourceGraphic" in2="BackgroundImageFix" result="shape"/>
<feGaussianBlur stdDeviation="103.704" result="effect1_foregroundBlur_2516_17725"/>
</filter>
<filter id="filter1_f_2516_17725" x="0.0339966" y="277.411" width="1310.81" height="1310.81" filterUnits="userSpaceOnUse" color-interpolation-filters="sRGB">
<feFlood flood-opacity="0" result="BackgroundImageFix"/>
<feBlend mode="normal" in="SourceGraphic" in2="BackgroundImageFix" result="shape"/>
<feGaussianBlur stdDeviation="103.704" result="effect1_foregroundBlur_2516_17725"/>
</filter>
<linearGradient id="paint0_linear_2516_17725" x1="327.704" y1="291.407" x2="687.556" y2="690.667" gradientUnits="userSpaceOnUse">
<stop stop-color="#242529"/>
<stop offset="1" stop-color="#242629" stop-opacity="0.9"/>
</linearGradient>
<linearGradient id="paint1_linear_2516_17725" x1="393.244" y1="349.689" x2="825.067" y2="828.8" gradientUnits="userSpaceOnUse">
<stop stop-color="#242529"/>
<stop offset="1" stop-color="#242629" stop-opacity="0.9"/>
</linearGradient>
</defs>
</svg>
