<svg width="673" height="1010" viewBox="0 0 673 1010" fill="none" xmlns="http://www.w3.org/2000/svg">
<g opacity="0.5">
<circle r="4.14815" transform="matrix(-1 0 0 1 668.852 4.1501)" fill="white"/>
<circle r="4.14815" transform="matrix(-1 0 0 1 469.741 4.1501)" fill="white"/>
<circle r="4.14815" transform="matrix(-1 0 0 1 270.629 4.1501)" fill="white"/>
<circle r="4.14815" transform="matrix(-1 0 0 1 204.26 4.1501)" fill="white"/>
<circle r="4.14815" transform="matrix(-1 0 0 1 137.889 4.1501)" fill="white"/>
<circle r="4.14815" transform="matrix(-1 0 0 1 71.5179 4.1501)" fill="white"/>
<circle r="4.14815" transform="matrix(-1 0 0 1 5.14677 4.1501)" fill="white"/>
<circle r="4.14815" transform="matrix(-1 0 0 1 602.481 4.1501)" fill="white"/>
<circle r="4.14815" transform="matrix(-1 0 0 1 403.371 4.1501)" fill="white"/>
<circle r="4.14815" transform="matrix(-1 0 0 1 536.11 4.1501)" fill="white"/>
<circle r="4.14815" transform="matrix(-1 0 0 1 336.998 4.1501)" fill="white"/>
<circle r="4.14815" transform="matrix(-1 0 0 1 668.852 70.5173)" fill="white"/>
<circle r="4.14815" transform="matrix(-1 0 0 1 469.741 70.5173)" fill="white"/>
<circle r="4.14815" transform="matrix(-1 0 0 1 270.629 70.5173)" fill="white"/>
<circle r="4.14815" transform="matrix(-1 0 0 1 204.26 70.5173)" fill="white"/>
<circle r="4.14815" transform="matrix(-1 0 0 1 137.889 70.5173)" fill="white"/>
<circle r="4.14815" transform="matrix(-1 0 0 1 71.5179 70.5173)" fill="white"/>
<circle r="4.14815" transform="matrix(-1 0 0 1 5.14677 70.5173)" fill="white"/>
<circle r="4.14815" transform="matrix(-1 0 0 1 602.481 70.5173)" fill="white"/>
<circle r="4.14815" transform="matrix(-1 0 0 1 403.371 70.5173)" fill="white"/>
<circle r="4.14815" transform="matrix(-1 0 0 1 536.11 70.5173)" fill="white"/>
<circle r="4.14815" transform="matrix(-1 0 0 1 336.998 70.5173)" fill="white"/>
<circle r="4.14815" transform="matrix(-1 0 0 1 668.852 136.89)" fill="white"/>
<circle r="4.14815" transform="matrix(-1 0 0 1 469.741 136.89)" fill="white"/>
<circle r="4.14815" transform="matrix(-1 0 0 1 270.629 136.89)" fill="white"/>
<circle r="4.14815" transform="matrix(-1 0 0 1 204.26 136.89)" fill="white"/>
<circle r="4.14815" transform="matrix(-1 0 0 1 137.889 136.89)" fill="white"/>
<circle r="4.14815" transform="matrix(-1 0 0 1 71.5179 136.89)" fill="white"/>
<circle r="4.14815" transform="matrix(-1 0 0 1 5.14677 136.89)" fill="white"/>
<circle r="4.14815" transform="matrix(-1 0 0 1 602.481 136.89)" fill="white"/>
<circle r="4.14815" transform="matrix(-1 0 0 1 403.371 136.89)" fill="white"/>
<circle r="4.14815" transform="matrix(-1 0 0 1 536.11 136.89)" fill="white"/>
<circle r="4.14815" transform="matrix(-1 0 0 1 336.998 136.89)" fill="white"/>
<circle r="4.14815" transform="matrix(-1 0 0 1 668.852 203.263)" fill="white"/>
<circle r="4.14815" transform="matrix(-1 0 0 1 469.741 203.263)" fill="white"/>
<circle r="4.14815" transform="matrix(-1 0 0 1 270.629 203.263)" fill="white"/>
<circle r="4.14815" transform="matrix(-1 0 0 1 137.889 203.263)" fill="white"/>
<circle r="4.14815" transform="matrix(-1 0 0 1 71.5179 203.263)" fill="white"/>
<circle r="4.14815" transform="matrix(-1 0 0 1 5.14677 203.263)" fill="white"/>
<circle r="4.14815" transform="matrix(-1 0 0 1 602.481 203.263)" fill="white"/>
<circle r="4.14815" transform="matrix(-1 0 0 1 403.371 203.263)" fill="white"/>
<circle r="4.14815" transform="matrix(-1 0 0 1 536.11 203.263)" fill="white"/>
<circle r="4.14815" transform="matrix(-1 0 0 1 336.998 203.263)" fill="white"/>
<circle r="4.14815" transform="matrix(-1 0 0 1 668.852 269.634)" fill="white"/>
<circle r="4.14815" transform="matrix(-1 0 0 1 469.741 269.634)" fill="white"/>
<circle r="4.14815" transform="matrix(-1 0 0 1 204.26 269.634)" fill="white"/>
<circle r="4.14815" transform="matrix(-1 0 0 1 137.889 269.634)" fill="white"/>
<circle r="4.14815" transform="matrix(-1 0 0 1 71.5179 269.634)" fill="white"/>
<circle r="4.14815" transform="matrix(-1 0 0 1 5.14677 269.634)" fill="white"/>
<circle r="4.14815" transform="matrix(-1 0 0 1 602.481 269.634)" fill="white"/>
<circle r="4.14815" transform="matrix(-1 0 0 1 403.371 269.634)" fill="white"/>
<circle r="4.14815" transform="matrix(-1 0 0 1 536.11 269.634)" fill="white"/>
<circle r="4.14815" transform="matrix(-1 0 0 1 336.998 269.634)" fill="white"/>
<circle r="4.14815" transform="matrix(-1 0 0 1 668.852 336.002)" fill="white"/>
<circle r="4.14815" transform="matrix(-1 0 0 1 469.741 336.002)" fill="white"/>
<circle r="4.14815" transform="matrix(-1 0 0 1 270.629 336.002)" fill="white"/>
<circle r="4.14815" transform="matrix(-1 0 0 1 204.26 336.002)" fill="white"/>
<circle r="4.14815" transform="matrix(-1 0 0 1 137.889 336.002)" fill="white"/>
<circle r="4.14815" transform="matrix(-1 0 0 1 71.5179 336.002)" fill="white"/>
<circle r="4.14815" transform="matrix(-1 0 0 1 5.14677 336.002)" fill="white"/>
<circle r="4.14815" transform="matrix(-1 0 0 1 602.481 336.002)" fill="white"/>
<circle r="4.14815" transform="matrix(-1 0 0 1 403.371 336.002)" fill="white"/>
<circle r="4.14815" transform="matrix(-1 0 0 1 536.11 336.002)" fill="white"/>
<circle r="4.14815" transform="matrix(-1 0 0 1 535.742 400.148)" fill="white"/>
<circle r="4.14815" transform="matrix(-1 0 0 1 336.633 400.148)" fill="white"/>
<circle r="4.14815" transform="matrix(-1 0 0 1 270.262 400.148)" fill="white"/>
<circle r="4.14815" transform="matrix(-1 0 0 1 137.522 400.148)" fill="white"/>
<circle r="4.14815" transform="matrix(-1 0 0 1 71.1487 400.148)" fill="white"/>
<circle r="4.14815" transform="matrix(-1 0 0 1 668.483 400.148)" fill="white"/>
<circle r="4.14815" transform="matrix(-1 0 0 1 469.373 400.148)" fill="white"/>
<circle r="4.14815" transform="matrix(-1 0 0 1 602.114 400.148)" fill="white"/>
<circle r="4.14815" transform="matrix(-1 0 0 1 668.852 468.742)" fill="white"/>
<circle r="4.14815" transform="matrix(-1 0 0 1 204.26 468.742)" fill="white"/>
<circle r="4.14815" transform="matrix(-1 0 0 1 137.889 468.742)" fill="white"/>
<circle r="4.14815" transform="matrix(-1 0 0 1 602.481 468.742)" fill="white"/>
<circle r="4.14815" transform="matrix(-1 0 0 1 403.371 468.742)" fill="white"/>
<circle r="4.14815" transform="matrix(-1 0 0 1 536.11 468.742)" fill="white"/>
<circle r="4.14815" transform="matrix(-1 0 0 1 336.998 468.742)" fill="white"/>
<circle r="4.14815" transform="matrix(-1 0 0 1 668.852 535.115)" fill="white"/>
<circle r="4.14815" transform="matrix(-1 0 0 1 469.741 535.115)" fill="white"/>
<circle r="4.14815" transform="matrix(-1 0 0 1 270.629 535.115)" fill="white"/>
<circle r="4.14815" transform="matrix(-1 0 0 1 204.26 535.115)" fill="white"/>
<circle r="4.14815" transform="matrix(-1 0 0 1 602.481 535.115)" fill="white"/>
<circle r="4.14815" transform="matrix(-1 0 0 1 403.371 535.115)" fill="white"/>
<circle r="4.14815" transform="matrix(-1 0 0 1 668.852 601.482)" fill="white"/>
<circle r="4.14815" transform="matrix(-1 0 0 1 469.741 601.482)" fill="white"/>
<circle r="4.14815" transform="matrix(-1 0 0 1 270.629 601.482)" fill="white"/>
<circle r="4.14815" transform="matrix(-1 0 0 1 602.481 601.482)" fill="white"/>
<circle r="4.14815" transform="matrix(-1 0 0 1 536.11 601.482)" fill="white"/>
<circle r="4.14815" transform="matrix(-1 0 0 1 336.998 601.482)" fill="white"/>
<circle r="4.14815" transform="matrix(-1 0 0 1 668.852 667.855)" fill="white"/>
<circle r="4.14815" transform="matrix(-1 0 0 1 602.481 667.855)" fill="white"/>
<circle r="4.14815" transform="matrix(-1 0 0 1 403.371 667.855)" fill="white"/>
<circle r="4.14815" transform="matrix(-1 0 0 1 536.11 667.855)" fill="white"/>
<circle r="4.14815" transform="matrix(-1 0 0 1 336.998 667.855)" fill="white"/>
<circle r="4.14815" transform="matrix(-1 0 0 1 668.852 734.226)" fill="white"/>
<circle r="4.14815" transform="matrix(-1 0 0 1 469.741 734.226)" fill="white"/>
<circle r="4.14815" transform="matrix(-1 0 0 1 602.481 734.226)" fill="white"/>
<circle r="4.14815" transform="matrix(-1 0 0 1 668.852 800.593)" fill="white"/>
<circle r="4.14815" transform="matrix(-1 0 0 1 469.741 800.593)" fill="white"/>
<circle r="4.14815" transform="matrix(-1 0 0 1 602.481 800.593)" fill="white"/>
<circle r="4.14815" transform="matrix(-1 0 0 1 536.11 800.593)" fill="white"/>
<circle r="4.14815" transform="matrix(-1 0 0 1 668.852 866.967)" fill="white"/>
<circle r="4.14815" transform="matrix(-1 0 0 1 602.481 866.967)" fill="white"/>
<circle r="4.14815" transform="matrix(-1 0 0 1 536.11 866.967)" fill="white"/>
<circle r="4.14815" transform="matrix(-1 0 0 1 668.852 933.334)" fill="white"/>
<circle r="4.14815" transform="matrix(-1 0 0 1 602.481 933.334)" fill="white"/>
<path d="M470.465 470.827C470.459 470.082 471.058 469.474 471.803 469.468L483.936 469.373C484.68 469.367 485.288 469.966 485.294 470.71C485.3 471.455 484.701 472.063 483.957 472.069L473.172 472.154L473.257 482.939C473.263 483.683 472.664 484.292 471.919 484.297C471.175 484.303 470.567 483.705 470.561 482.96L470.465 470.827ZM537.238 537.11L470.867 471.777L472.759 469.856L539.129 535.189L537.238 537.11Z" fill="#9174C0"/>
<path d="M274.052 469.769C274.058 470.513 273.46 471.122 272.715 471.127L260.582 471.223C259.837 471.229 259.229 470.63 259.223 469.885C259.217 469.141 259.816 468.533 260.561 468.527L271.346 468.442L271.261 457.657C271.255 456.912 271.854 456.304 272.598 456.298C273.343 456.292 273.951 456.891 273.957 457.636L274.052 469.769ZM207.28 403.485L273.65 468.819L271.759 470.74L205.388 405.407L207.28 403.485Z" fill="#75DEEC"/>
<path d="M337.723 339.124C337.717 338.379 338.316 337.771 339.06 337.765L351.193 337.67C351.938 337.664 352.546 338.263 352.552 339.007C352.558 339.752 351.959 340.36 351.215 340.366L340.43 340.451L340.515 351.236C340.521 351.98 339.922 352.588 339.177 352.594C338.433 352.6 337.824 352.001 337.818 351.257L337.723 339.124ZM404.496 405.407L338.125 340.074L340.017 338.153L406.387 403.486L404.496 405.407Z" fill="#9174C0"/>
<path d="M406.791 601.472C406.797 602.216 406.198 602.825 405.453 602.831L393.32 602.926C392.576 602.932 391.967 602.333 391.962 601.589C391.956 600.844 392.555 600.236 393.299 600.23L404.084 600.145L403.999 589.36C403.993 588.616 404.592 588.007 405.336 588.001C406.081 587.995 406.689 588.594 406.695 589.339L406.791 601.472ZM340.018 535.188L406.388 600.522L404.497 602.443L338.127 537.11L340.018 535.188Z" fill="#75DEEC"/>
<path d="M204.985 207.421C204.979 206.676 205.578 206.068 206.322 206.062L218.455 205.967C219.2 205.961 219.808 206.559 219.814 207.304C219.82 208.049 219.221 208.657 218.476 208.663L207.691 208.748L207.776 219.532C207.782 220.277 207.183 220.885 206.439 220.891C205.694 220.897 205.086 220.298 205.08 219.554L204.985 207.421ZM271.757 273.704L205.387 208.371L207.279 206.449L273.649 271.783L271.757 273.704Z" fill="#9174C0"/>
<path d="M539.531 733.175C539.537 733.919 538.938 734.528 538.193 734.534L526.061 734.629C525.316 734.635 524.708 734.036 524.702 733.292C524.696 732.547 525.295 731.939 526.039 731.933L536.824 731.848L536.739 721.063C536.733 720.319 537.332 719.71 538.077 719.704C538.821 719.699 539.43 720.297 539.435 721.042L539.531 733.175ZM472.758 666.891L539.129 732.225L537.237 734.146L470.867 668.813L472.758 666.891Z" fill="#75DEEC"/>
</g>
</svg>
